<svg id="visual" viewBox="0 0 960 540" width="960" height="540" xmlns="http://www.w3.org/2000/svg" xmlns:xlink="http://www.w3.org/1999/xlink" version="1.1"><rect x="0" y="0" width="960" height="540" fill="#ffffff"></rect><defs><linearGradient id="grad1_0" x1="43.8%" y1="100%" x2="100%" y2="0%"><stop offset="14.444444444444446%" stop-color="#cbf2fe" stop-opacity="1"></stop><stop offset="85.55555555555554%" stop-color="#cbf2fe" stop-opacity="1"></stop></linearGradient></defs><defs><linearGradient id="grad1_1" x1="43.8%" y1="100%" x2="100%" y2="0%"><stop offset="14.444444444444446%" stop-color="#cbf2fe" stop-opacity="1"></stop><stop offset="85.55555555555554%" stop-color="#ffffff" stop-opacity="1"></stop></linearGradient></defs><defs><linearGradient id="grad2_0" x1="0%" y1="100%" x2="56.3%" y2="0%"><stop offset="14.444444444444446%" stop-color="#cbf2fe" stop-opacity="1"></stop><stop offset="85.55555555555554%" stop-color="#cbf2fe" stop-opacity="1"></stop></linearGradient></defs><defs><linearGradient id="grad2_1" x1="0%" y1="100%" x2="56.3%" y2="0%"><stop offset="14.444444444444446%" stop-color="#ffffff" stop-opacity="1"></stop><stop offset="85.55555555555554%" stop-color="#cbf2fe" stop-opacity="1"></stop></linearGradient></defs><g transform="translate(960, 540)"><path d="M-297 0C-299.7 -14.8 -302.4 -29.6 -294 -42.3C-285.6 -54.9 -266 -65.3 -250.4 -73.5C-234.8 -81.8 -223.1 -87.8 -226.5 -103.4C-229.9 -119 -248.3 -144.2 -249 -160C-249.7 -175.9 -232.6 -182.3 -219.9 -190.6C-207.3 -198.8 -199.1 -208.8 -188.6 -217.7C-178.1 -226.6 -165.5 -234.4 -150.3 -233.9C-135.1 -233.3 -117.5 -224.4 -106.3 -232.9C-95.2 -241.3 -90.5 -267.2 -79.4 -270.6C-68.4 -273.9 -51 -254.7 -36.7 -255.4C-22.4 -256 -11.2 -276.5 0 -297L0 0Z" fill="#e6f9ff"></path><path d="M-148.5 0C-149.8 -7.4 -151.2 -14.8 -147 -21.1C-142.8 -27.4 -133 -32.6 -125.2 -36.8C-117.4 -40.9 -111.6 -43.9 -113.2 -51.7C-114.9 -59.5 -124.2 -72.1 -124.5 -80C-124.8 -87.9 -116.3 -91.2 -110 -95.3C-103.6 -99.4 -99.5 -104.4 -94.3 -108.8C-89.1 -113.3 -82.7 -117.2 -75.1 -116.9C-67.6 -116.7 -58.8 -112.2 -53.2 -116.4C-47.6 -120.7 -45.2 -133.6 -39.7 -135.3C-34.2 -137 -25.5 -127.4 -18.4 -127.7C-11.2 -128 -5.6 -138.3 0 -148.5L0 0Z" fill="#cbf2fe"></path></g><g transform="translate(0, 0)"><path d="M297 0C276.4 11.4 255.8 22.9 252.4 36.3C249 49.7 262.9 65.2 262.9 77.2C262.9 89.2 248.9 97.8 245.6 112.2C242.3 126.5 249.7 146.6 238.1 153C226.5 159.4 195.9 152.1 184.4 159.8C172.9 167.5 180.4 190.2 175.5 202.5C170.6 214.9 153.5 216.9 138.4 215.4C123.4 213.8 110.4 208.6 103.4 226.5C96.4 244.4 95.3 285.5 83.7 285C72 284.5 49.9 242.5 34.2 237.6C18.5 232.6 9.2 264.8 0 297L0 0Z" fill="#e6f9ff"></path><path d="M148.5 0C138.2 5.7 127.9 11.4 126.2 18.1C124.5 24.9 131.5 32.6 131.5 38.6C131.4 44.6 124.5 48.9 122.8 56.1C121.2 63.3 124.8 73.3 119 76.5C113.2 79.7 98 76 92.2 79.9C86.4 83.7 90.2 95.1 87.8 101.3C85.3 107.5 76.7 108.5 69.2 107.7C61.7 106.9 55.2 104.3 51.7 113.2C48.2 122.2 47.7 142.7 41.8 142.5C36 142.2 24.9 121.2 17.1 118.8C9.2 116.3 4.6 132.4 0 148.5L0 0Z" fill="#cbf2fe"></path></g></svg>