<svg id="visual" viewBox="0 0 900 600" width="900" height="600" xmlns="http://www.w3.org/2000/svg" xmlns:xlink="http://www.w3.org/1999/xlink" version="1.1"><rect width="900" height="600" fill="#000000"></rect><g><g transform="translate(318 505)"><path d="M0 -54.2L47 -27.1L47 27.1L0 54.2L-47 27.1L-47 -27.1Z" fill="#0c0c0c"></path></g><g transform="translate(895 377)"><path d="M0 -52L45 -26L45 26L0 52L-45 26L-45 -26Z" fill="#0c0c0c"></path></g><g transform="translate(145 314)"><path d="M0 -20L17.3 -10L17.3 10L0 20L-17.3 10L-17.3 -10Z" fill="#0c0c0c"></path></g><g transform="translate(298 185)"><path d="M0 -40L34.6 -20L34.6 20L0 40L-34.6 20L-34.6 -20Z" fill="#0c0c0c"></path></g><g transform="translate(412 77)"><path d="M0 -45L39 -22.5L39 22.5L0 45L-39 22.5L-39 -22.5Z" fill="#0c0c0c"></path></g><g transform="translate(411 312)"><path d="M0 -53L45.9 -26.5L45.9 26.5L0 53L-45.9 26.5L-45.9 -26.5Z" fill="#0c0c0c"></path></g><g transform="translate(741 232)"><path d="M0 -23L19.9 -11.5L19.9 11.5L0 23L-19.9 11.5L-19.9 -11.5Z" fill="#0c0c0c"></path></g><g transform="translate(709 37)"><path d="M0 -40L34.6 -20L34.6 20L0 40L-34.6 20L-34.6 -20Z" fill="#0c0c0c"></path></g><g transform="translate(143 88)"><path d="M0 -34L29.4 -17L29.4 17L0 34L-29.4 17L-29.4 -17Z" fill="#0c0c0c"></path></g><g transform="translate(818 498)"><path d="M0 -9L7.8 -4.5L7.8 4.5L0 9L-7.8 4.5L-7.8 -4.5Z" fill="#0c0c0c"></path></g><g transform="translate(524 341)"><path d="M0 -46L39.8 -23L39.8 23L0 46L-39.8 23L-39.8 -23Z" fill="#0c0c0c"></path></g><g transform="translate(283 62)"><path d="M0 -48L41.6 -24L41.6 24L0 48L-41.6 24L-41.6 -24Z" fill="#0c0c0c"></path></g><g transform="translate(283 340)"><path d="M0 -32L27.7 -16L27.7 16L0 32L-27.7 16L-27.7 -16Z" fill="#0c0c0c"></path></g><g transform="translate(81 541)"><path d="M0 -47L40.7 -23.5L40.7 23.5L0 47L-40.7 23.5L-40.7 -23.5Z" fill="#0c0c0c"></path></g><g transform="translate(653 426)"><path d="M0 -22L19.1 -11L19.1 11L0 22L-19.1 11L-19.1 -11Z" fill="#0c0c0c"></path></g><g transform="translate(623 258)"><path d="M0 -50L43.3 -25L43.3 25L0 50L-43.3 25L-43.3 -25Z" fill="#0c0c0c"></path></g><g transform="translate(531 508)"><path d="M0 -14L12.1 -7L12.1 7L0 14L-12.1 7L-12.1 -7Z" fill="#0c0c0c"></path></g><g transform="translate(58 19)"><path d="M0 -14L12.1 -7L12.1 7L0 14L-12.1 7L-12.1 -7Z" fill="#0c0c0c"></path></g><g transform="translate(437 569)"><path d="M0 -27L23.4 -13.5L23.4 13.5L0 27L-23.4 13.5L-23.4 -13.5Z" fill="#0c0c0c"></path></g><g transform="translate(464 199)"><path d="M0 -41L35.5 -20.5L35.5 20.5L0 41L-35.5 20.5L-35.5 -20.5Z" fill="#0c0c0c"></path></g><g transform="translate(7 144)"><path d="M0 -20L17.3 -10L17.3 10L0 20L-17.3 10L-17.3 -10Z" fill="#0c0c0c"></path></g><g transform="translate(693 559)"><path d="M0 -41L35.5 -20.5L35.5 20.5L0 41L-35.5 20.5L-35.5 -20.5Z" fill="#0c0c0c"></path></g><g transform="translate(207 499)"><path d="M0 -23L19.9 -11.5L19.9 11.5L0 23L-19.9 11.5L-19.9 -11.5Z" fill="#0c0c0c"></path></g><g transform="translate(838 18)"><path d="M0 -52L45 -26L45 26L0 52L-45 26L-45 -26Z" fill="#0c0c0c"></path></g><g transform="translate(532 8)"><path d="M0 -43L37.2 -21.5L37.2 21.5L0 43L-37.2 21.5L-37.2 -21.5Z" fill="#0c0c0c"></path></g><g transform="translate(585 139)"><path d="M0 -19L16.5 -9.5L16.5 9.5L0 19L-16.5 9.5L-16.5 -9.5Z" fill="#0c0c0c"></path></g><g transform="translate(854 233)"><path d="M0 -49L42.4 -24.5L42.4 24.5L0 49L-42.4 24.5L-42.4 -24.5Z" fill="#0c0c0c"></path></g><g transform="translate(34 424)"><path d="M0 -19L16.5 -9.5L16.5 9.5L0 19L-16.5 9.5L-16.5 -9.5Z" fill="#0c0c0c"></path></g><g transform="translate(16 306)"><path d="M0 -38L32.9 -19L32.9 19L0 38L-32.9 19L-32.9 -19Z" fill="#0c0c0c"></path></g><g transform="translate(784 366)"><path d="M0 -50L43.3 -25L43.3 25L0 50L-43.3 25L-43.3 -25Z" fill="#0c0c0c"></path></g><g transform="translate(444 427)"><path d="M0 -16L13.9 -8L13.9 8L0 16L-13.9 8L-13.9 -8Z" fill="#0c0c0c"></path></g><g transform="translate(885 597)"><path d="M0 -11L9.5 -5.5L9.5 5.5L0 11L-9.5 5.5L-9.5 -5.5Z" fill="#0c0c0c"></path></g><g transform="translate(178 209)"><path d="M0 -46L39.8 -23L39.8 23L0 46L-39.8 23L-39.8 -23Z" fill="#0c0c0c"></path></g><g transform="translate(891 119)"><path d="M0 -17L14.7 -8.5L14.7 8.5L0 17L-14.7 8.5L-14.7 -8.5Z" fill="#0c0c0c"></path></g></g></svg>